<?xml version="1.0" encoding="iso-8859-1"?>
<!-- Generator: Adobe Illustrator 19.0.0, SVG Export Plug-In . SVG Version: 6.00 Build 0)  -->
<svg version="1.1" id="Capa_1" xmlns="http://www.w3.org/2000/svg" xmlns:xlink="http://www.w3.org/1999/xlink" x="0px" y="0px"
	 viewBox="0 0 508.184 508.184" style="enable-background:new 0 0 508.184 508.184;" xml:space="preserve">
<g>
	<g>
		<g>
			<path d="M363.07,28.504c-2.422-1.353-5.372-1.354-7.796-0.003c-3.859,2.151-5.244,7.024-3.092,10.883
				c40.311,72.537,40.311,160.746,0,233.283c-64.419,115.917-210.611,157.665-326.528,93.245c-2.441-1.38-5.426-1.381-7.869-0.003
				c-3.848,2.171-5.207,7.051-3.035,10.899c45.292,81.055,130.853,131.304,223.704,131.376
				c92.816-0.029,178.349-50.286,223.551-131.351C530.874,253.324,486.579,97.372,363.07,28.504z M378.667,446.661
				c-107.506,77.534-257.51,53.237-335.045-54.269c63.171,26.39,134.279,26.389,197.45-0.002
				c130.515-54.526,192.116-204.531,137.59-335.046c20.885,15.062,39.211,33.387,54.273,54.272
				C510.47,219.122,486.173,369.126,378.667,446.661z"/>
			<path d="M206.59,173.632l7.864,42.736l7.848-42.72c8.224-44.552,13.056-49.4,57.6-57.6l42.736-7.864l-42.72-7.848
				c-44.56-8.216-49.392-13.064-57.6-57.6L214.454,0l-7.848,42.72c-8.224,44.552-13.056,49.4-57.6,57.6l-42.736,7.864l42.72,7.848
				C193.55,124.248,198.382,129.096,206.59,173.632z M214.454,77.112c4.611,14.841,16.231,26.461,31.072,31.072
				c-14.841,4.61-26.461,16.231-31.072,31.072c-4.61-14.841-16.231-26.462-31.072-31.072
				C198.223,103.573,209.844,91.953,214.454,77.112z"/>
			<path d="M118.59,333.632l7.864,42.736l7.848-42.72c8.224-44.552,13.056-49.4,57.6-57.6l42.736-7.864l-42.72-7.848
				c-44.56-8.216-49.392-13.064-57.6-57.6L126.454,160l-7.848,42.72c-8.224,44.552-13.056,49.4-57.6,57.6l-42.736,7.864l42.72,7.848
				C105.55,284.248,110.382,289.096,118.59,333.632z M126.454,237.112c4.611,14.841,16.231,26.461,31.072,31.072
				c-14.841,4.61-26.461,16.231-31.072,31.072c-4.611-14.841-16.231-26.461-31.072-31.072
				C110.223,263.573,121.844,251.953,126.454,237.112z"/>
		</g>
	</g>
</g>
<g>
</g>
<g>
</g>
<g>
</g>
<g>
</g>
<g>
</g>
<g>
</g>
<g>
</g>
<g>
</g>
<g>
</g>
<g>
</g>
<g>
</g>
<g>
</g>
<g>
</g>
<g>
</g>
<g>
</g>
</svg>
